<svg width="100%" height="100%" viewBox="0 0 28 28" fill="none" xmlns="http://www.w3.org/2000/svg">
<path
    d="M23.3333 10.5H12.8333C11.5447 10.5 10.5 11.5447 10.5 12.8333V23.3333C10.5 24.622 11.5447 25.6667 12.8333 25.6667H23.3333C24.622 25.6667 25.6667 24.622 25.6667 23.3333V12.8333C25.6667 11.5447 24.622 10.5 23.3333 10.5Z"
    stroke="currentColor"
    stroke-width="2"
    stroke-linecap="round"
    stroke-linejoin="round"
  />
<path
    d="M5.83325 17.5H4.66659C4.04775 17.5 3.45425 17.2542 3.01667 16.8166C2.57908 16.379 2.33325 15.7855 2.33325 15.1667V4.66666C2.33325 4.04782 2.57908 3.45433 3.01667 3.01675C3.45425 2.57916 4.04775 2.33333 4.66659 2.33333H15.1666C15.7854 2.33333 16.3789 2.57916 16.8165 3.01675C17.2541 3.45433 17.4999 4.04782 17.4999 4.66666V5.83333"
    stroke="currentColor"
    stroke-width="2"
    stroke-linecap="round"
    stroke-linejoin="round"
  />
</svg>
