<svg width="100%" height="100%" viewBox="0 0 96 19" fill="none" xmlns="http://www.w3.org/2000/svg">
<path d="M30.4825 1.69327H23.5347V18.2123H26.6743V12.3139H30.5502C33.8083 12.3139 35.9324 10.0967 35.9324 7.03318C35.9324 3.78354 33.9352 1.69327 30.4825 1.69327ZM30.4656 9.42811H26.6828V4.62134H30.4656C31.9211 4.62134 32.8012 5.35758 32.8012 7.02472C32.8012 8.69186 31.9127 9.42811 30.4656 9.42811Z" fill="white"/>
<path d="M42.6769 5.6369C39.2749 5.6369 36.5161 8.42111 36.5161 12.0854C36.5161 15.7497 39.2749 18.4916 42.6769 18.4916C46.0789 18.4916 48.8631 15.7582 48.8631 12.0854C48.8631 8.41264 46.0873 5.6369 42.6769 5.6369ZM42.6769 15.6143C41.0098 15.6143 39.6557 14.1842 39.6557 12.1193C39.6557 10.0036 41.0098 8.52266 42.6769 8.52266C44.344 8.52266 45.6981 9.99516 45.6981 12.1193C45.7065 14.1842 44.344 15.6143 42.6769 15.6143Z" fill="white"/>
<path d="M56.2596 15.6396C54.5247 15.6396 53.1199 14.0487 53.1199 12.1192C53.1199 10.1474 54.5247 8.52256 56.2596 8.52256C57.402 8.52256 58.3752 9.23342 58.8068 10.0712H62.1665C61.4556 7.3124 59.213 5.64526 56.268 5.64526C52.5783 5.64526 49.938 8.54795 49.938 12.0938C49.938 15.6396 52.5783 18.5 56.268 18.5C59.2469 18.5 61.481 16.8582 62.1919 14.074H58.8322C58.426 14.9203 57.4189 15.6396 56.2596 15.6396Z" fill="white"/>
<path d="M75.292 5.94993H70.9592L66.9394 10.4013V0.5H63.7998V18.2038H66.9394V14.6834L68.5135 13.0416L71.56 18.2038H75.5544L70.7222 10.7313L75.292 5.94993Z" fill="white"/>
<path d="M81.5796 5.6369C78.1268 5.6369 75.3003 8.53958 75.3003 12.0854C75.3003 15.6313 78.1353 18.4916 81.5796 18.4916C84.6261 18.4916 86.7925 16.7991 87.5034 14.3026H84.1437C83.6191 15.2758 82.5951 15.7328 81.5457 15.7328C80.0732 15.7328 78.88 14.8019 78.4738 13.304H87.7319C88.1973 8.44649 85.1931 5.6369 81.5796 5.6369ZM78.533 10.7314C78.9815 9.30122 80.124 8.39572 81.5542 8.39572C83.0521 8.39572 84.2453 9.30122 84.6261 10.7314H78.533Z" fill="white"/>
<path d="M92.835 13.067V8.73417H95.0522V5.94997H92.835V2.83572H89.6954V5.94997H88.2229V8.73417H89.6954V13.0416C89.6954 16.4013 91.5995 18.5593 95.1961 18.1785V15.3266C93.6221 15.4196 92.835 14.7765 92.835 13.067Z" fill="white"/>
<path d="M11.5175 1.61716H10.3074V8.97118H11.5175V1.61716Z" fill="white"/>
<path d="M14.8352 4.46903C14.8352 3.36889 15.6476 2.53955 16.7646 2.53955C17.9325 2.53955 18.5672 3.36889 18.5672 4.49442V8.96269H19.7689V4.53673C19.7689 2.7088 18.7449 1.42249 16.9423 1.42249C16.0538 1.42249 15.3006 1.79484 14.8013 2.40415V1.6002H13.625V8.95423H14.8352V4.46903Z" fill="white"/>
<path d="M2.20028 15.5381V12.0261H3.86742V10.8667H2.20028V9.29263H0.99859V10.8667H0V12.0261H0.99859V15.5381C0.99859 17.4083 2.18336 18.4238 3.90127 18.2207V17.1121C2.99577 17.1713 2.20028 16.8413 2.20028 15.5381Z" fill="white"/>
<path d="M8.5811 10.689C7.70945 10.689 6.98167 11.0444 6.48237 11.6199V7.60861H5.27222V18.2377H6.48237V13.7271C6.48237 12.6269 7.29478 11.7976 8.41185 11.7976C9.59662 11.7976 10.2144 12.61 10.2144 13.7525V18.2207H11.4161V13.7948C11.4076 11.9669 10.3836 10.689 8.5811 10.689Z" fill="white"/>
<path d="M16.6205 10.6891C14.581 10.6891 12.9224 12.4324 12.9224 14.5565C12.9224 16.7145 14.581 18.3986 16.6967 18.3986C18.3977 18.3986 19.6502 17.51 20.1664 15.9444H18.8801C18.4823 16.7991 17.7376 17.2984 16.6967 17.2984C15.4865 17.2984 14.3102 16.4014 14.1579 14.8697H20.3441C20.3526 12.2547 18.5246 10.6891 16.6205 10.6891ZM14.2256 13.7864C14.5387 12.534 15.6135 11.7893 16.629 11.7893C17.7038 11.7893 18.7023 12.5932 18.9985 13.7864H14.2256Z" fill="white"/>
</svg>
