<svg
  width="100%"
  height="100%"
  viewBox="0 0 32 32"
  fill="none"
  preserveAspectRatio="xMidYMid meet"
  xmlns="http://www.w3.org/2000/svg"
  >
    <path
      fill-rule="evenodd"
      clip-rule="evenodd"
      d="M28.9486 16.4918C28.0042 16.9642 26.9342 17.2307 25.8006 17.2307C21.9776 17.2307 18.8785 14.2 18.8785 10.4615C18.8785 8.8876 19.4278 7.43916 20.3491 6.28949C19.4466 5.50067 18.8785 4.35356 18.8785 3.0767C18.8785 2.04974 19.246 1.10672 19.8594 0.366521C18.7323 0.126467 17.5619 0 16.3613 0C7.32519 0 0 7.16344 0 16C0 24.8366 7.32519 32 16.3613 32C23.7185 32 29.9416 27.2511 32 20.7168C30.2285 20.1588 28.9468 18.5336 28.9468 16.6157C28.9468 16.5743 28.9474 16.533 28.9486 16.4918Z"
      fill="url(#paint0_linear_2_5741)"
    />
    <defs>
      <linearGradient
          id="paint0_linear_2_5741"
          x1="-5.07251"
          y1="-21.8462"
          x2="16.3237"
          y2="55.9287"
          gradientUnits="userSpaceOnUse"
      >
        <stop stop-color="#0086E7" />
        <stop offset="1" stop-color="#0500FF" />
      </linearGradient>
    </defs>
  </svg>
