<svg width="100%" height="100%" viewBox="0 0 72 72" fill="none" xmlns="http://www.w3.org/2000/svg">
<path d="M38.1431 21.8569C38.1431 23.0403 37.1837 23.9997 36.0003 23.9997C34.8169 23.9997 33.8574 23.0403 33.8574 21.8569C33.8574 20.6734 34.8169 19.714 36.0003 19.714C37.1837 19.714 38.1431 20.6734 38.1431 21.8569Z" fill="currentColor" stroke="currentColor" stroke-width="6"/>
<path d="M39.2143 38.5712C39.2143 40.0066 39.5059 41.4271 40.0713 42.7465L44.844 53.8829C45.2637 54.862 44.8101 55.9957 43.8312 56.4153C42.8521 56.8349 41.7183 56.3813 41.2988 55.4024L36.526 44.2659C36.489 44.1795 36.4528 44.0929 36.4176 44.0058C36.3466 43.831 36.1781 43.7141 35.9895 43.7141C35.7962 43.7141 35.6247 43.8364 35.5575 44.0175C35.4581 44.2849 35.3521 44.5503 35.2394 44.8131L30.7012 55.4024C30.2817 56.3813 29.1479 56.8349 28.1688 56.4153C27.1899 55.9957 26.7363 54.862 27.156 53.8829L31.6941 43.2938C32.4144 41.6134 32.7857 39.8041 32.7857 37.9758V34.5333C28.1564 34.0094 23.863 32.3673 20.1861 29.8837C19.3035 29.2875 19.0711 28.0887 19.6673 27.206C20.2635 26.3234 21.4624 26.0912 22.3449 26.6874C26.2425 29.3199 30.9388 30.8569 36 30.8569C41.0612 30.8569 45.7575 29.3199 49.6551 26.6874C50.5377 26.0912 51.7365 26.3234 52.3327 27.206C52.9289 28.0887 52.6965 29.2875 51.8139 29.8837C48.137 32.3673 43.8436 34.0094 39.2143 34.5333V38.5712Z" fill="currentColor"/>
<circle cx="36" cy="36" r="28" stroke="currentColor" stroke-width="6"/>
</svg>
